<?xml version="1.0" encoding="UTF-8" standalone="no"?>
<!DOCTYPE svg PUBLIC "-//W3C//DTD SVG 1.1//EN" "http://www.w3.org/Graphics/SVG/1.1/DTD/svg11.dtd">
<svg
  version="1.1"
  xmlns="http://www.w3.org/2000/svg"
  xmlns:xlink="http://www.w3.org/1999/xlink"
  preserveAspectRatio="xMidYMid meet"
  viewBox="0 0 20 20"
  width="20"
  height="20"
>
  <defs>
    <path
      d="M13.26 10C13.26 11.88 11.8 13.4 10 13.4C8.2 13.4 6.74 11.88 6.74 10C6.74 8.12 8.2 6.6 10 6.6C11.8 6.6 13.26 8.12 13.26 10Z"
      id="a4gPzjFRbx"
    ></path>
    <path
      d="M15.95 10C15.95 13.38 13.28 16.13 10 16.13C6.72 16.13 4.05 13.38 4.05 10C4.05 6.62 6.72 3.87 10 3.87C13.28 3.87 15.95 6.62 15.95 10Z"
      id="aJveiFDY8"
    ></path>
    <path
      d="M12.19 10C12.19 11.2 11.21 12.17 10 12.17C8.79 12.17 7.81 11.2 7.81 10C7.81 8.8 8.79 7.83 10 7.83C11.21 7.83 12.19 8.8 12.19 10Z"
      id="a3GQ0eEBYG"
    ></path>
    <path
      d="M16.71 11.99C16.71 12.74 16.1 13.35 15.34 13.35C14.58 13.35 13.96 12.74 13.96 11.99C13.96 11.24 14.58 10.63 15.34 10.63C16.1 10.63 16.71 11.24 16.71 11.99Z"
      id="awjRjirt7"
    ></path>
  </defs>
  <g>
    <g>
      <g>
        <g>
          <use
            xlink:href="#b5ZWzd8zbU"
            opacity="1"
            fill-opacity="0"
            stroke="#5e5e5e"
            stroke-width="0"
            stroke-opacity="1"
          ></use>
        </g>
      </g>
      <g>
        <g>
          <use
            xlink:href="#a4SYacOCr"
            opacity="1"
            fill-opacity="0"
            stroke="#5e5e5e"
            stroke-width="0.5"
            stroke-opacity="1"
          ></use>
        </g>
      </g>
      <g>
        <use
          xlink:href="#a4gPzjFRbx"
          opacity="1"
          fill="#5e5e5e"
          fill-opacity="1"
        ></use>
      </g>
      <g>
        <use
          xlink:href="#aJveiFDY8"
          opacity="1"
          fill="#5e5e5e"
          fill-opacity="0"
        ></use>
        <g>
          <use
            xlink:href="#aJveiFDY8"
            opacity="1"
            fill-opacity="0"
            stroke="#5e5e5e"
            stroke-width="0.88"
            stroke-opacity="1"
          ></use>
        </g>
      </g>
      <g>
        <use
          xlink:href="#a3GQ0eEBYG"
          opacity="1"
          fill="#ffffff"
          fill-opacity="0.96"
        ></use>
      </g>
      <g>
        <use
          xlink:href="#awjRjirt7"
          opacity="1"
          fill="#5e5e5e"
          fill-opacity="0.96"
        ></use>
        <g>
          <use
            xlink:href="#awjRjirt7"
            opacity="1"
            fill-opacity="0"
            stroke="#ffffff"
            stroke-width="0.8"
            stroke-opacity="1"
          ></use>
        </g>
      </g>
    </g>
  </g>
</svg>
